<?xml version="1.0" encoding="UTF-8"?>
<svg id="Layer_1" xmlns="http://www.w3.org/2000/svg" version="1.1" viewBox="0 0 800 800">
  <!-- Generator: Adobe Illustrator 29.0.1, SVG Export Plug-In . SVG Version: 2.1.0 Build 192)  -->
  <defs>
    <style>
      .st0 {
        fill: #9ffff8;
      }

      .st1 {
        fill: #ecfcde;
      }

      .st2 {
        fill: #9fdbad;
      }

      .st3 {
        fill: #f05071;
      }

      .st4 {
        fill: #5c2d51;
      }
    </style>
  </defs>
  <path class="st2" d="M692.5,692.4c-29.4,29.6-61.5,56.3-96,79.7-13.1,10-31.4,9.5-43.8-1.4l-245.9-245.9c-13.7-13.7-23.1-31.1-27.3-50l-14.1-60.3c-3.6-16-10.7-31.1-20.9-43.9L93.6,185.7c-2-4.1-.9-9.1,2.7-11.9l77.4-77.4c2.9-3.7,8.1-4.8,12.3-2.6l184.4,150.6c12.9,10.4,28,17.6,44.2,21.2l60.3,14.1c18.9,4.2,36.3,13.6,50,27.3l245.9,245.9c10.8,12.3,11.4,30.4,1.5,43.4-23.3,34.6-50,66.9-79.7,96.2Z"/>
  <path class="st4" d="M182,115.1l176.7,144.5c15.2,11.9,32.8,20.3,51.6,24.6l60.4,13.9c15.4,3.5,29.5,11.2,40.7,22.3l245.9,245.9c4.1,4.1,3.6,12.3-1.4,20-22.5,33.3-48.3,64.4-76.9,92.6-28.4,28.9-59.7,54.8-93.4,77.4-7,4.6-15.7,4.6-19.3.9l-245.9-245.9c-11.1-11.2-18.8-25.3-22.3-40.7l-13.9-60.4c-4.3-19-12.8-36.8-25-52L115.2,181.9l66.8-66.8M160.3,82.8l-77.4,77.4c-10.7,9.7-12.4,25.8-4.1,37.6l150.8,184.6c8.5,10.7,14.5,23.2,17.6,36.5l13.9,60.1c4.9,22.4,16.1,43,32.3,59.3l245.9,245.9c18.7,17.2,46.9,18.8,67.4,3.9,35.8-24,69.1-51.6,99.3-82.3,30.6-30.2,58.2-63.5,82.2-99.2,14.9-20.5,13.3-48.8-3.9-67.4l-245.9-245.9c-16.3-16.2-36.9-27.4-59.3-32.3l-60.3-14.1c-13.3-3.1-25.8-9.1-36.5-17.6L197.8,78.8c-11.7-8.3-27.9-6.6-37.6,4.1Z"/>
  <path class="st3" d="M80.7,195.9l-50.3-50.3c-9.5-9.5-6.3-28.2,7.2-41.8L103.8,37.7c13.6-13.7,32.4-17.2,42-7.7,0,0,0,0,.1.1l50.3,50.3-115.5,115.5Z"/>
  <path class="st4" d="M127.1,41.4c3-3,7.2-3.8,9.4-1.8l36.8,36.8-96.6,96.6-36.8-36.8c-2.1-2.1-1.4-6.2,1.6-9.2l9.7-9.7L117.3,51.2M90.2,24.1L24.1,90.3C-.2,114.6-6.1,148.1,10.9,165.1c0,0,0,0,0,0l50.3,50.3c7.5,7.5,22.2,4.9,32.8-5.8l115.7-115.7c10.7-10.7,13.2-25.3,5.8-32.8l-50.3-50.3C148.1-6.1,114.6-.2,90.2,24.1Z"/>
  <path class="st1" d="M336.8,554.8l218-218,152.2,152.2-218,218-152.2-152.2Z"/>
  <path class="st4" d="M549.9,358.9l143.6,143.6-191,191-152.2-152.2,191-191M536.3,291.2l-245,245,215.6,215.6,245-245-215.6-215.6h0Z"/>
  <path class="st0" d="M512.3,553.7c22.3,13.4,23.9,42.6,5.5,61-18.4,18.4-47.5,17-61-5.5-8.3-13.9-11.1-44.4-27.7-83.2,38.8,16.6,69.4,19.4,83.2,27.7Z"/>
</svg>